<svg version="1.1" id="Layer_1" xmlns="http://www.w3.org/2000/svg" xmlns:xlink="http://www.w3.org/1999/xlink" x="0px" y="0px"
	 width="100%" viewBox="0 0 680 679" enable-background="new 0 0 680 679" xml:space="preserve">
<path fill="#fff" opacity="1.000000" stroke="none" 
	d="
M261.107117,462.941437 
	C234.400650,437.113312 211.271744,408.354889 191.435608,376.988068 
	C172.093979,346.403259 156.464813,314.067932 149.569336,278.277496 
	C137.243378,214.300507 148.909653,154.997086 190.225159,104.142776 
	C233.943405,50.330975 291.935211,27.051971 361.073547,34.926350 
	C423.406769,42.025669 470.869171,74.040932 503.173096,127.206421 
	C530.630005,172.394714 537.942322,221.895340 528.563721,273.920227 
	C523.094910,304.256927 513.007996,332.750366 494.776184,357.836517 
	C472.997437,387.803070 445.089691,409.143341 407.983246,416.414001 
	C372.921387,423.284058 341.667755,414.896149 314.327667,391.895264 
	C313.477783,391.180267 312.497040,390.620789 311.577301,389.988800 
	C311.789734,389.642639 312.002167,389.296478 312.214600,388.950348 
	C317.423309,389.256805 322.628723,389.748718 327.841217,389.841522 
	C393.344360,391.008026 455.900024,350.629730 473.703339,277.600769 
	C484.582764,232.973526 480.389771,190.538422 455.632446,151.239365 
	C433.046295,115.386726 399.909821,95.214211 358.323303,88.956177 
	C315.341248,82.488136 277.619293,94.489426 245.283905,123.220085 
	C219.327469,146.282928 204.600815,175.572189 200.084335,209.795273 
	C194.534073,251.851791 203.610596,291.295288 223.696579,328.244293 
	C238.598389,355.656799 255.536087,381.871674 277.283569,404.398438 
	C286.326019,413.764954 297.474243,421.098511 307.702576,429.941345 
	C294.018799,443.953796 278.899200,455.369965 261.107117,462.941437 
z"/>
<path fill="#fff" opacity="1.000000" stroke="none" 
	d="
M398.110046,478.182220 
	C361.350281,518.577881 318.725891,550.295410 265.100128,564.203186 
	C192.453766,583.043823 126.573479,569.397095 70.297264,518.634338 
	C36.257614,487.929596 16.380608,448.445435 11.311992,403.199432 
	C1.892185,319.111664 33.105282,252.240433 101.692215,202.773758 
	C102.906136,201.898254 104.144249,201.056290 105.989304,200.364746 
	C105.996819,207.052719 105.331779,213.570084 104.785889,220.097412 
	C103.327393,237.536926 102.104782,254.979126 105.221878,272.382416 
	C86.556389,293.205200 73.712181,316.957550 67.513214,344.424072 
	C54.615078,401.573517 79.137688,464.428192 127.502426,495.510315 
	C156.247055,513.983337 188.076080,520.210693 221.962006,517.465576 
	C264.593994,514.011841 300.281433,495.620026 332.186523,467.234070 
	C339.542358,469.339569 346.167694,471.808594 352.936310,473.787750 
	C366.715240,477.816742 380.752838,479.240814 395.063934,477.263184 
	C396.018738,477.131226 397.091919,477.855957 398.110046,478.182220 
z"/>
<path fill="#fff" opacity="1.000000" stroke="none" 
	d="
M568.408508,198.063812 
	C579.867126,206.834641 592.246155,214.642014 602.617920,224.550476 
	C638.880371,259.192963 660.494324,301.738556 666.693726,351.555786 
	C679.388977,453.572235 611.842651,549.315979 509.910339,568.143860 
	C470.903717,575.348755 432.780243,573.213806 395.151184,559.138428 
	C400.353241,552.119019 406.089935,545.920959 411.160065,539.218689 
	C417.410797,530.955688 423.106567,522.272888 429.042175,513.771484 
	C444.724640,517.127686 460.566040,518.821350 476.608612,518.001404 
	C521.549377,515.704224 559.641724,498.720825 585.505615,461.292450 
	C614.637939,419.134216 621.319885,372.897491 603.372498,323.915955 
	C596.335754,304.711456 586.218079,287.562500 572.118408,271.915344 
	C572.212646,268.888855 572.632629,266.612122 572.603149,264.341248 
	C572.484741,255.220581 572.227173,246.101715 572.030151,236.515991 
	C570.829041,223.387817 569.618774,210.725815 568.408508,198.063812 
z"/>
<path fill="#FCFDF6" opacity="1.000000" stroke="none" 
	d="
M433.039612,250.079285 
	C408.355621,256.092468 386.590149,267.909729 367.319489,284.179382 
	C337.339752,309.490387 315.566315,340.630646 302.605164,377.786926 
	C302.443237,378.251068 302.146149,378.668030 301.720398,379.466827 
	C300.716827,378.621674 299.630920,377.973846 298.895477,377.047729 
	C288.362885,363.784058 277.841461,350.511078 267.412537,337.165924 
	C265.420105,334.616302 265.021301,332.128296 266.731781,328.665802 
	C295.980652,269.458282 340.600494,226.795273 402.199585,202.394913 
	C409.282684,199.589203 416.808441,197.900970 424.568237,196.100418 
	C425.033508,196.835388 424.986053,197.191650 425.096039,197.489822 
	C430.793915,212.934784 433.748505,228.767517 432.123291,245.303223 
	C431.971222,246.850281 432.712891,248.485168 433.039612,250.079285 
z"/>
<path fill="#fff" opacity="1.000000" stroke="none" 
	d="
M398.424194,478.054688 
	C397.091919,477.855957 396.018738,477.131226 395.063934,477.263184 
	C380.752838,479.240814 366.715240,477.816742 352.936310,473.787750 
	C346.167694,471.808594 339.542358,469.339569 332.480347,467.071106 
	C337.520660,461.664612 342.834442,456.173553 348.421265,450.976044 
	C349.655975,449.827393 351.978882,448.975311 353.594910,449.240509 
	C378.322632,453.298126 402.672089,452.579773 427.083801,444.509521 
	C424.147339,448.294098 421.284424,452.138794 418.253876,455.846405 
	C415.198883,459.583893 412.018829,463.221924 408.817505,466.836151 
	C405.505432,470.575409 402.101868,474.233551 398.424194,478.054688 
z"/>
<path fill="#fff" opacity="1.000000" stroke="none" 
	d="
M251.989822,196.025055 
	C266.545837,201.111938 281.101837,206.198822 295.684082,211.823761 
	C286.616516,220.948792 277.151978,229.185532 268.577148,238.262680 
	C263.919922,243.192734 260.776154,249.552444 256.949707,255.267303 
	C252.144043,253.687103 247.338379,252.106903 242.412323,249.915375 
	C242.504868,248.512360 242.915207,247.717285 242.901733,246.929428 
	C242.601425,229.363235 246.535110,212.559677 251.989822,196.025055 
z"/>
<path fill="#fff" opacity="1.000000" stroke="none" 
	d="
M410.721924,320.252319 
	C410.602020,322.072479 410.830719,324.199707 409.911560,324.987274 
	C397.131073,335.938293 383.749603,346.002899 367.285583,352.022217 
	C364.932007,348.094818 362.572601,344.157684 360.061523,339.967407 
	C371.018311,325.378418 384.145874,313.080627 398.995819,301.365662 
	C402.889404,307.630890 406.713135,313.783691 410.721924,320.252319 
z"/>
<path fill="#fff" opacity="1.000000" stroke="none"
	d="
M428.740326,513.582825 
	C423.106567,522.272888 417.410797,530.955688 411.160065,539.218689 
	C406.089935,545.920959 400.353241,552.119019 394.879395,558.910522 
	C387.233795,555.881714 379.620972,552.483154 372.715363,549.400330 
	C386.291901,537.014099 399.455719,525.235413 412.292877,513.110901 
	C415.083557,510.475037 417.257477,509.319946 420.858185,511.012268 
	C423.233429,512.128662 425.901520,512.621887 428.740326,513.582825 
z"/>
<path fill="#fff" opacity="1.000000" stroke="none"
	d="
M257.158813,255.534729 
	C260.776154,249.552444 263.919922,243.192734 268.577148,238.262680 
	C277.151978,229.185532 286.616516,220.948792 295.913391,212.083862 
	C300.821686,214.223251 305.526886,216.640594 309.687103,218.777969 
	C295.932648,232.722351 282.321564,246.521393 268.272919,260.764038 
	C265.488403,259.497070 261.428131,257.649628 257.158813,255.534729 
z"/>
<path fill="#fff" opacity="1.000000" stroke="none"
	d="
M433.461182,250.130310 
	C432.712891,248.485168 431.971222,246.850281 432.123291,245.303223 
	C433.748505,228.767517 430.793915,212.934784 425.096039,197.489822 
	C424.986053,197.191650 425.033508,196.835388 424.974792,196.099991 
	C429.608917,194.672455 434.275696,193.651138 439.056000,192.604996 
	C445.690826,209.835434 447.317719,227.219223 445.764160,245.016022 
	C445.549774,247.471848 444.615448,248.909119 441.769135,248.979370 
	C439.132050,249.044495 436.510895,249.755035 433.461182,250.130310 
z"/>
<path fill="#fff" opacity="1.000000" stroke="none"
	d="
M251.682129,195.798218 
	C246.535110,212.559677 242.601425,229.363235 242.901733,246.929428 
	C242.915207,247.717285 242.504868,248.512360 242.123093,249.691498 
	C238.861267,249.532455 235.768280,248.985977 232.225662,248.360062 
	C229.084579,229.470688 231.429947,211.305222 237.516800,192.860382 
	C242.340164,193.803986 246.857300,194.687683 251.682129,195.798218 
z"/>
<path fill="#fff" opacity="1.000000" stroke="none"
	d="
M105.533218,272.240723 
	C102.104782,254.979126 103.327393,237.536926 104.785889,220.097412 
	C105.331779,213.570084 105.996819,207.052719 106.320145,200.275391 
	C109.205940,197.994171 112.379120,195.968353 116.488609,193.344788 
	C115.915283,197.473816 115.107918,200.631607 115.099060,203.791641 
	C115.048813,221.723862 115.026237,239.660187 115.419334,257.585785 
	C115.488205,260.726318 115.122971,262.895355 112.819031,264.968201 
	C110.352348,267.187469 108.157860,269.709259 105.533218,272.240723 
z"/>
<path fill="#fff" opacity="1.000000" stroke="none"
	d="
M261.228516,463.252533 
	C278.899200,455.369965 294.018799,443.953796 307.895966,430.219269 
	C310.927490,431.485260 313.803253,433.058197 318.628510,435.697388 
	C316.700348,436.610352 315.407532,437.017426 314.345764,437.756409 
	C301.185638,446.915649 288.246185,456.408234 274.848175,465.202942 
	C267.706818,469.890656 267.355713,469.355804 261.228516,463.252533 
z"/>
<path fill="#fff" opacity="1.000000" stroke="none"
	d="
M568.281738,197.829422 
	C569.618774,210.725815 570.829041,223.387817 571.761597,236.713898 
	C571.094788,238.404709 570.432312,239.413589 570.363892,240.461258 
	C570.069458,244.968323 567.674622,247.571518 563.196167,247.986084 
	C562.807129,230.094391 562.418030,212.202698 562.027222,194.231186 
	C563.648376,195.121109 565.901672,196.358063 568.281738,197.829422 
z"/>
<path fill="#fff" opacity="1.000000" stroke="none"
	d="
M563.088501,248.399384 
	C567.674622,247.571518 570.069458,244.968323 570.363892,240.461258 
	C570.432312,239.413589 571.094788,238.404709 571.752441,237.180084 
	C572.227173,246.101715 572.484741,255.220581 572.603149,264.341248 
	C572.632629,266.612122 572.212646,268.888855 571.981567,271.611298 
	C571.682800,271.899689 571.391602,271.755035 571.122192,271.577332 
	C562.709167,266.028259 560.215881,258.360260 563.088501,248.399384 
z"/>
</svg>